<?xml version="1.0" standalone="no"?>
<svg xmlns="http://www.w3.org/2000/svg" width="300" height="300"><defs><clipPath id="clip-path-dot-color" style="transform-origin: center center; transform: rotate(90deg) scale(1, -1);"><rect x="18" y="90" width="8" height="8" transform="rotate(0,22,94)"/><rect x="18" y="106" width="8" height="8" transform="rotate(0,22,110)"/><rect x="18" y="114" width="8" height="8" transform="rotate(0,22,118)"/><rect x="18" y="122" width="8" height="8" transform="rotate(0,22,126)"/><rect x="18" y="138" width="8" height="8" transform="rotate(0,22,142)"/><rect x="18" y="146" width="8" height="8" transform="rotate(0,22,150)"/><rect x="18" y="154" width="8" height="8" transform="rotate(0,22,158)"/><rect x="18" y="162" width="8" height="8" transform="rotate(0,22,166)"/><rect x="18" y="178" width="8" height="8" transform="rotate(0,22,182)"/><rect x="18" y="194" width="8" height="8" transform="rotate(0,22,198)"/><rect x="26" y="82" width="8" height="8" transform="rotate(0,30,86)"/><rect x="26" y="90" width="8" height="8" transform="rotate(0,30,94)"/><rect x="26" y="98" width="8" height="8" transform="rotate(0,30,102)"/><rect x="26" y="114" width="8" height="8" transform="rotate(0,30,118)"/><rect x="26" y="122" width="8" height="8" transform="rotate(0,30,126)"/><rect x="26" y="138" width="8" height="8" transform="rotate(0,30,142)"/><rect x="26" y="154" width="8" height="8" transform="rotate(0,30,158)"/><rect x="26" y="162" width="8" height="8" transform="rotate(0,30,166)"/><rect x="26" y="170" width="8" height="8" transform="rotate(0,30,174)"/><rect x="26" y="178" width="8" height="8" transform="rotate(0,30,182)"/><rect x="26" y="194" width="8" height="8" transform="rotate(0,30,198)"/><rect x="26" y="210" width="8" height="8" transform="rotate(0,30,214)"/><rect x="34" y="114" width="8" height="8" transform="rotate(0,38,118)"/><rect x="34" y="130" width="8" height="8" transform="rotate(0,38,134)"/><rect x="34" y="170" width="8" height="8" transform="rotate(0,38,174)"/><rect x="34" y="186" width="8" height="8" transform="rotate(0,38,190)"/><rect x="34" y="194" width="8" height="8" transform="rotate(0,38,198)"/><rect x="34" y="202" width="8" height="8" transform="rotate(0,38,206)"/><rect x="34" y="210" width="8" height="8" transform="rotate(0,38,214)"/><rect x="42" y="82" width="8" height="8" transform="rotate(0,46,86)"/><rect x="42" y="98" width="8" height="8" transform="rotate(0,46,102)"/><rect x="42" y="106" width="8" height="8" transform="rotate(0,46,110)"/><rect x="42" y="114" width="8" height="8" transform="rotate(0,46,118)"/><rect x="42" y="138" width="8" height="8" transform="rotate(0,46,142)"/><rect x="42" y="154" width="8" height="8" transform="rotate(0,46,158)"/><rect x="42" y="186" width="8" height="8" transform="rotate(0,46,190)"/><rect x="42" y="210" width="8" height="8" transform="rotate(0,46,214)"/><rect x="50" y="82" width="8" height="8" transform="rotate(0,54,86)"/><rect x="50" y="90" width="8" height="8" transform="rotate(0,54,94)"/><rect x="50" y="98" width="8" height="8" transform="rotate(0,54,102)"/><rect x="50" y="106" width="8" height="8" transform="rotate(0,54,110)"/><rect x="50" y="122" width="8" height="8" transform="rotate(0,54,126)"/><rect x="50" y="162" width="8" height="8" transform="rotate(0,54,166)"/><rect x="50" y="170" width="8" height="8" transform="rotate(0,54,174)"/><rect x="50" y="186" width="8" height="8" transform="rotate(0,54,190)"/><rect x="58" y="90" width="8" height="8" transform="rotate(0,62,94)"/><rect x="58" y="106" width="8" height="8" transform="rotate(0,62,110)"/><rect x="58" y="130" width="8" height="8" transform="rotate(0,62,134)"/><rect x="58" y="138" width="8" height="8" transform="rotate(0,62,142)"/><rect x="58" y="178" width="8" height="8" transform="rotate(0,62,182)"/><rect x="58" y="194" width="8" height="8" transform="rotate(0,62,198)"/><rect x="58" y="202" width="8" height="8" transform="rotate(0,62,206)"/><rect x="66" y="82" width="8" height="8" transform="rotate(0,70,86)"/><rect x="66" y="98" width="8" height="8" transform="rotate(0,70,102)"/><rect x="66" y="114" width="8" height="8" transform="rotate(0,70,118)"/><rect x="66" y="130" width="8" height="8" transform="rotate(0,70,134)"/><rect x="66" y="146" width="8" height="8" transform="rotate(0,70,150)"/><rect x="66" y="162" width="8" height="8" transform="rotate(0,70,166)"/><rect x="66" y="178" width="8" height="8" transform="rotate(0,70,182)"/><rect x="66" y="194" width="8" height="8" transform="rotate(0,70,198)"/><rect x="66" y="210" width="8" height="8" transform="rotate(0,70,214)"/><rect x="74" y="82" width="8" height="8" transform="rotate(0,78,86)"/><rect x="74" y="90" width="8" height="8" transform="rotate(0,78,94)"/><rect x="74" y="114" width="8" height="8" transform="rotate(0,78,118)"/><rect x="74" y="122" width="8" height="8" transform="rotate(0,78,126)"/><rect x="74" y="138" width="8" height="8" transform="rotate(0,78,142)"/><rect x="74" y="178" width="8" height="8" transform="rotate(0,78,182)"/><rect x="74" y="194" width="8" height="8" transform="rotate(0,78,198)"/><rect x="74" y="210" width="8" height="8" transform="rotate(0,78,214)"/><rect x="82" y="26" width="8" height="8" transform="rotate(0,86,30)"/><rect x="82" y="42" width="8" height="8" transform="rotate(0,86,46)"/><rect x="82" y="50" width="8" height="8" transform="rotate(0,86,54)"/><rect x="82" y="58" width="8" height="8" transform="rotate(0,86,62)"/><rect x="82" y="66" width="8" height="8" transform="rotate(0,86,70)"/><rect x="82" y="82" width="8" height="8" transform="rotate(0,86,86)"/><rect x="82" y="90" width="8" height="8" transform="rotate(0,86,94)"/><rect x="82" y="106" width="8" height="8" transform="rotate(0,86,110)"/><rect x="82" y="122" width="8" height="8" transform="rotate(0,86,126)"/><rect x="82" y="146" width="8" height="8" transform="rotate(0,86,150)"/><rect x="82" y="154" width="8" height="8" transform="rotate(0,86,158)"/><rect x="82" y="170" width="8" height="8" transform="rotate(0,86,174)"/><rect x="82" y="178" width="8" height="8" transform="rotate(0,86,182)"/><rect x="82" y="210" width="8" height="8" transform="rotate(0,86,214)"/><rect x="82" y="218" width="8" height="8" transform="rotate(0,86,222)"/><rect x="82" y="226" width="8" height="8" transform="rotate(0,86,230)"/><rect x="82" y="242" width="8" height="8" transform="rotate(0,86,246)"/><rect x="82" y="250" width="8" height="8" transform="rotate(0,86,254)"/><rect x="82" y="266" width="8" height="8" transform="rotate(0,86,270)"/><rect x="90" y="34" width="8" height="8" transform="rotate(0,94,38)"/><rect x="90" y="42" width="8" height="8" transform="rotate(0,94,46)"/><rect x="90" y="50" width="8" height="8" transform="rotate(0,94,54)"/><rect x="90" y="58" width="8" height="8" transform="rotate(0,94,62)"/><rect x="90" y="74" width="8" height="8" transform="rotate(0,94,78)"/><rect x="90" y="98" width="8" height="8" transform="rotate(0,94,102)"/><rect x="90" y="106" width="8" height="8" transform="rotate(0,94,110)"/><rect x="90" y="122" width="8" height="8" transform="rotate(0,94,126)"/><rect x="90" y="138" width="8" height="8" transform="rotate(0,94,142)"/><rect x="90" y="154" width="8" height="8" transform="rotate(0,94,158)"/><rect x="90" y="162" width="8" height="8" transform="rotate(0,94,166)"/><rect x="90" y="170" width="8" height="8" transform="rotate(0,94,174)"/><rect x="90" y="186" width="8" height="8" transform="rotate(0,94,190)"/><rect x="90" y="202" width="8" height="8" transform="rotate(0,94,206)"/><rect x="90" y="242" width="8" height="8" transform="rotate(0,94,246)"/><rect x="90" y="250" width="8" height="8" transform="rotate(0,94,254)"/><rect x="90" y="258" width="8" height="8" transform="rotate(0,94,262)"/><rect x="90" y="266" width="8" height="8" transform="rotate(0,94,270)"/><rect x="98" y="18" width="8" height="8" transform="rotate(0,102,22)"/><rect x="98" y="50" width="8" height="8" transform="rotate(0,102,54)"/><rect x="98" y="66" width="8" height="8" transform="rotate(0,102,70)"/><rect x="98" y="98" width="8" height="8" transform="rotate(0,102,102)"/><rect x="98" y="106" width="8" height="8" transform="rotate(0,102,110)"/><rect x="98" y="138" width="8" height="8" transform="rotate(0,102,142)"/><rect x="98" y="186" width="8" height="8" transform="rotate(0,102,190)"/><rect x="98" y="202" width="8" height="8" transform="rotate(0,102,206)"/><rect x="98" y="218" width="8" height="8" transform="rotate(0,102,222)"/><rect x="98" y="242" width="8" height="8" transform="rotate(0,102,246)"/><rect x="98" y="250" width="8" height="8" transform="rotate(0,102,254)"/><rect x="98" y="258" width="8" height="8" transform="rotate(0,102,262)"/><rect x="98" y="266" width="8" height="8" transform="rotate(0,102,270)"/><rect x="98" y="274" width="8" height="8" transform="rotate(0,102,278)"/><rect x="106" y="42" width="8" height="8" transform="rotate(0,110,46)"/><rect x="106" y="82" width="8" height="8" transform="rotate(0,110,86)"/><rect x="106" y="98" width="8" height="8" transform="rotate(0,110,102)"/><rect x="106" y="122" width="8" height="8" transform="rotate(0,110,126)"/><rect x="106" y="130" width="8" height="8" transform="rotate(0,110,134)"/><rect x="106" y="138" width="8" height="8" transform="rotate(0,110,142)"/><rect x="106" y="154" width="8" height="8" transform="rotate(0,110,158)"/><rect x="106" y="170" width="8" height="8" transform="rotate(0,110,174)"/><rect x="106" y="178" width="8" height="8" transform="rotate(0,110,182)"/><rect x="106" y="202" width="8" height="8" transform="rotate(0,110,206)"/><rect x="106" y="218" width="8" height="8" transform="rotate(0,110,222)"/><rect x="106" y="226" width="8" height="8" transform="rotate(0,110,230)"/><rect x="106" y="234" width="8" height="8" transform="rotate(0,110,238)"/><rect x="106" y="258" width="8" height="8" transform="rotate(0,110,262)"/><rect x="106" y="266" width="8" height="8" transform="rotate(0,110,270)"/><rect x="114" y="26" width="8" height="8" transform="rotate(0,118,30)"/><rect x="114" y="42" width="8" height="8" transform="rotate(0,118,46)"/><rect x="114" y="66" width="8" height="8" transform="rotate(0,118,70)"/><rect x="114" y="82" width="8" height="8" transform="rotate(0,118,86)"/><rect x="114" y="90" width="8" height="8" transform="rotate(0,118,94)"/><rect x="114" y="122" width="8" height="8" transform="rotate(0,118,126)"/><rect x="114" y="138" width="8" height="8" transform="rotate(0,118,142)"/><rect x="114" y="154" width="8" height="8" transform="rotate(0,118,158)"/><rect x="114" y="162" width="8" height="8" transform="rotate(0,118,166)"/><rect x="114" y="202" width="8" height="8" transform="rotate(0,118,206)"/><rect x="114" y="210" width="8" height="8" transform="rotate(0,118,214)"/><rect x="114" y="226" width="8" height="8" transform="rotate(0,118,230)"/><rect x="114" y="242" width="8" height="8" transform="rotate(0,118,246)"/><rect x="114" y="274" width="8" height="8" transform="rotate(0,118,278)"/><rect x="122" y="34" width="8" height="8" transform="rotate(0,126,38)"/><rect x="122" y="42" width="8" height="8" transform="rotate(0,126,46)"/><rect x="122" y="50" width="8" height="8" transform="rotate(0,126,54)"/><rect x="122" y="58" width="8" height="8" transform="rotate(0,126,62)"/><rect x="122" y="82" width="8" height="8" transform="rotate(0,126,86)"/><rect x="122" y="98" width="8" height="8" transform="rotate(0,126,102)"/><rect x="122" y="106" width="8" height="8" transform="rotate(0,126,110)"/><rect x="122" y="122" width="8" height="8" transform="rotate(0,126,126)"/><rect x="122" y="130" width="8" height="8" transform="rotate(0,126,134)"/><rect x="122" y="146" width="8" height="8" transform="rotate(0,126,150)"/><rect x="122" y="154" width="8" height="8" transform="rotate(0,126,158)"/><rect x="122" y="162" width="8" height="8" transform="rotate(0,126,166)"/><rect x="122" y="202" width="8" height="8" transform="rotate(0,126,206)"/><rect x="122" y="218" width="8" height="8" transform="rotate(0,126,222)"/><rect x="122" y="234" width="8" height="8" transform="rotate(0,126,238)"/><rect x="122" y="258" width="8" height="8" transform="rotate(0,126,262)"/><rect x="130" y="18" width="8" height="8" transform="rotate(0,134,22)"/><rect x="130" y="26" width="8" height="8" transform="rotate(0,134,30)"/><rect x="130" y="34" width="8" height="8" transform="rotate(0,134,38)"/><rect x="130" y="42" width="8" height="8" transform="rotate(0,134,46)"/><rect x="130" y="50" width="8" height="8" transform="rotate(0,134,54)"/><rect x="130" y="58" width="8" height="8" transform="rotate(0,134,62)"/><rect x="130" y="66" width="8" height="8" transform="rotate(0,134,70)"/><rect x="130" y="74" width="8" height="8" transform="rotate(0,134,78)"/><rect x="130" y="82" width="8" height="8" transform="rotate(0,134,86)"/><rect x="130" y="90" width="8" height="8" transform="rotate(0,134,94)"/><rect x="130" y="114" width="8" height="8" transform="rotate(0,134,118)"/><rect x="130" y="122" width="8" height="8" transform="rotate(0,134,126)"/><rect x="130" y="130" width="8" height="8" transform="rotate(0,134,134)"/><rect x="130" y="146" width="8" height="8" transform="rotate(0,134,150)"/><rect x="130" y="154" width="8" height="8" transform="rotate(0,134,158)"/><rect x="130" y="170" width="8" height="8" transform="rotate(0,134,174)"/><rect x="130" y="178" width="8" height="8" transform="rotate(0,134,182)"/><rect x="130" y="194" width="8" height="8" transform="rotate(0,134,198)"/><rect x="130" y="210" width="8" height="8" transform="rotate(0,134,214)"/><rect x="130" y="226" width="8" height="8" transform="rotate(0,134,230)"/><rect x="130" y="242" width="8" height="8" transform="rotate(0,134,246)"/><rect x="130" y="250" width="8" height="8" transform="rotate(0,134,254)"/><rect x="138" y="18" width="8" height="8" transform="rotate(0,142,22)"/><rect x="138" y="26" width="8" height="8" transform="rotate(0,142,30)"/><rect x="138" y="74" width="8" height="8" transform="rotate(0,142,78)"/><rect x="138" y="114" width="8" height="8" transform="rotate(0,142,118)"/><rect x="138" y="130" width="8" height="8" transform="rotate(0,142,134)"/><rect x="138" y="138" width="8" height="8" transform="rotate(0,142,142)"/><rect x="138" y="178" width="8" height="8" transform="rotate(0,142,182)"/><rect x="138" y="194" width="8" height="8" transform="rotate(0,142,198)"/><rect x="138" y="210" width="8" height="8" transform="rotate(0,142,214)"/><rect x="138" y="218" width="8" height="8" transform="rotate(0,142,222)"/><rect x="138" y="234" width="8" height="8" transform="rotate(0,142,238)"/><rect x="138" y="242" width="8" height="8" transform="rotate(0,142,246)"/><rect x="138" y="250" width="8" height="8" transform="rotate(0,142,254)"/><rect x="138" y="258" width="8" height="8" transform="rotate(0,142,262)"/><rect x="138" y="274" width="8" height="8" transform="rotate(0,142,278)"/><rect x="146" y="34" width="8" height="8" transform="rotate(0,150,38)"/><rect x="146" y="58" width="8" height="8" transform="rotate(0,150,62)"/><rect x="146" y="66" width="8" height="8" transform="rotate(0,150,70)"/><rect x="146" y="74" width="8" height="8" transform="rotate(0,150,78)"/><rect x="146" y="82" width="8" height="8" transform="rotate(0,150,86)"/><rect x="146" y="90" width="8" height="8" transform="rotate(0,150,94)"/><rect x="146" y="98" width="8" height="8" transform="rotate(0,150,102)"/><rect x="146" y="106" width="8" height="8" transform="rotate(0,150,110)"/><rect x="146" y="114" width="8" height="8" transform="rotate(0,150,118)"/><rect x="146" y="122" width="8" height="8" transform="rotate(0,150,126)"/><rect x="146" y="178" width="8" height="8" transform="rotate(0,150,182)"/><rect x="146" y="210" width="8" height="8" transform="rotate(0,150,214)"/><rect x="146" y="218" width="8" height="8" transform="rotate(0,150,222)"/><rect x="146" y="226" width="8" height="8" transform="rotate(0,150,230)"/><rect x="146" y="234" width="8" height="8" transform="rotate(0,150,238)"/><rect x="146" y="242" width="8" height="8" transform="rotate(0,150,246)"/><rect x="146" y="250" width="8" height="8" transform="rotate(0,150,254)"/><rect x="154" y="74" width="8" height="8" transform="rotate(0,158,78)"/><rect x="154" y="98" width="8" height="8" transform="rotate(0,158,102)"/><rect x="154" y="122" width="8" height="8" transform="rotate(0,158,126)"/><rect x="154" y="154" width="8" height="8" transform="rotate(0,158,158)"/><rect x="154" y="162" width="8" height="8" transform="rotate(0,158,166)"/><rect x="154" y="170" width="8" height="8" transform="rotate(0,158,174)"/><rect x="154" y="194" width="8" height="8" transform="rotate(0,158,198)"/><rect x="154" y="226" width="8" height="8" transform="rotate(0,158,230)"/><rect x="154" y="242" width="8" height="8" transform="rotate(0,158,246)"/><rect x="154" y="258" width="8" height="8" transform="rotate(0,158,262)"/><rect x="154" y="266" width="8" height="8" transform="rotate(0,158,270)"/><rect x="154" y="274" width="8" height="8" transform="rotate(0,158,278)"/><rect x="162" y="18" width="8" height="8" transform="rotate(0,166,22)"/><rect x="162" y="34" width="8" height="8" transform="rotate(0,166,38)"/><rect x="162" y="50" width="8" height="8" transform="rotate(0,166,54)"/><rect x="162" y="58" width="8" height="8" transform="rotate(0,166,62)"/><rect x="162" y="66" width="8" height="8" transform="rotate(0,166,70)"/><rect x="162" y="74" width="8" height="8" transform="rotate(0,166,78)"/><rect x="162" y="90" width="8" height="8" transform="rotate(0,166,94)"/><rect x="162" y="98" width="8" height="8" transform="rotate(0,166,102)"/><rect x="162" y="114" width="8" height="8" transform="rotate(0,166,118)"/><rect x="162" y="122" width="8" height="8" transform="rotate(0,166,126)"/><rect x="162" y="130" width="8" height="8" transform="rotate(0,166,134)"/><rect x="162" y="146" width="8" height="8" transform="rotate(0,166,150)"/><rect x="162" y="162" width="8" height="8" transform="rotate(0,166,166)"/><rect x="162" y="170" width="8" height="8" transform="rotate(0,166,174)"/><rect x="162" y="194" width="8" height="8" transform="rotate(0,166,198)"/><rect x="162" y="202" width="8" height="8" transform="rotate(0,166,206)"/><rect x="162" y="226" width="8" height="8" transform="rotate(0,166,230)"/><rect x="162" y="234" width="8" height="8" transform="rotate(0,166,238)"/><rect x="162" y="250" width="8" height="8" transform="rotate(0,166,254)"/><rect x="162" y="258" width="8" height="8" transform="rotate(0,166,262)"/><rect x="162" y="274" width="8" height="8" transform="rotate(0,166,278)"/><rect x="170" y="18" width="8" height="8" transform="rotate(0,174,22)"/><rect x="170" y="26" width="8" height="8" transform="rotate(0,174,30)"/><rect x="170" y="42" width="8" height="8" transform="rotate(0,174,46)"/><rect x="170" y="50" width="8" height="8" transform="rotate(0,174,54)"/><rect x="170" y="74" width="8" height="8" transform="rotate(0,174,78)"/><rect x="170" y="82" width="8" height="8" transform="rotate(0,174,86)"/><rect x="170" y="122" width="8" height="8" transform="rotate(0,174,126)"/><rect x="170" y="130" width="8" height="8" transform="rotate(0,174,134)"/><rect x="170" y="146" width="8" height="8" transform="rotate(0,174,150)"/><rect x="170" y="154" width="8" height="8" transform="rotate(0,174,158)"/><rect x="170" y="162" width="8" height="8" transform="rotate(0,174,166)"/><rect x="170" y="170" width="8" height="8" transform="rotate(0,174,174)"/><rect x="170" y="194" width="8" height="8" transform="rotate(0,174,198)"/><rect x="170" y="202" width="8" height="8" transform="rotate(0,174,206)"/><rect x="170" y="218" width="8" height="8" transform="rotate(0,174,222)"/><rect x="170" y="226" width="8" height="8" transform="rotate(0,174,230)"/><rect x="170" y="242" width="8" height="8" transform="rotate(0,174,246)"/><rect x="170" y="250" width="8" height="8" transform="rotate(0,174,254)"/><rect x="170" y="258" width="8" height="8" transform="rotate(0,174,262)"/><rect x="170" y="274" width="8" height="8" transform="rotate(0,174,278)"/><rect x="178" y="26" width="8" height="8" transform="rotate(0,182,30)"/><rect x="178" y="34" width="8" height="8" transform="rotate(0,182,38)"/><rect x="178" y="50" width="8" height="8" transform="rotate(0,182,54)"/><rect x="178" y="66" width="8" height="8" transform="rotate(0,182,70)"/><rect x="178" y="74" width="8" height="8" transform="rotate(0,182,78)"/><rect x="178" y="82" width="8" height="8" transform="rotate(0,182,86)"/><rect x="178" y="90" width="8" height="8" transform="rotate(0,182,94)"/><rect x="178" y="106" width="8" height="8" transform="rotate(0,182,110)"/><rect x="178" y="122" width="8" height="8" transform="rotate(0,182,126)"/><rect x="178" y="130" width="8" height="8" transform="rotate(0,182,134)"/><rect x="178" y="138" width="8" height="8" transform="rotate(0,182,142)"/><rect x="178" y="210" width="8" height="8" transform="rotate(0,182,214)"/><rect x="178" y="250" width="8" height="8" transform="rotate(0,182,254)"/><rect x="178" y="266" width="8" height="8" transform="rotate(0,182,270)"/><rect x="186" y="18" width="8" height="8" transform="rotate(0,190,22)"/><rect x="186" y="26" width="8" height="8" transform="rotate(0,190,30)"/><rect x="186" y="58" width="8" height="8" transform="rotate(0,190,62)"/><rect x="186" y="74" width="8" height="8" transform="rotate(0,190,78)"/><rect x="186" y="106" width="8" height="8" transform="rotate(0,190,110)"/><rect x="186" y="122" width="8" height="8" transform="rotate(0,190,126)"/><rect x="186" y="130" width="8" height="8" transform="rotate(0,190,134)"/><rect x="186" y="138" width="8" height="8" transform="rotate(0,190,142)"/><rect x="186" y="146" width="8" height="8" transform="rotate(0,190,150)"/><rect x="186" y="170" width="8" height="8" transform="rotate(0,190,174)"/><rect x="186" y="186" width="8" height="8" transform="rotate(0,190,190)"/><rect x="186" y="194" width="8" height="8" transform="rotate(0,190,198)"/><rect x="186" y="202" width="8" height="8" transform="rotate(0,190,206)"/><rect x="186" y="234" width="8" height="8" transform="rotate(0,190,238)"/><rect x="186" y="242" width="8" height="8" transform="rotate(0,190,246)"/><rect x="186" y="250" width="8" height="8" transform="rotate(0,190,254)"/><rect x="194" y="18" width="8" height="8" transform="rotate(0,198,22)"/><rect x="194" y="50" width="8" height="8" transform="rotate(0,198,54)"/><rect x="194" y="58" width="8" height="8" transform="rotate(0,198,62)"/><rect x="194" y="66" width="8" height="8" transform="rotate(0,198,70)"/><rect x="194" y="74" width="8" height="8" transform="rotate(0,198,78)"/><rect x="194" y="90" width="8" height="8" transform="rotate(0,198,94)"/><rect x="194" y="130" width="8" height="8" transform="rotate(0,198,134)"/><rect x="194" y="138" width="8" height="8" transform="rotate(0,198,142)"/><rect x="194" y="154" width="8" height="8" transform="rotate(0,198,158)"/><rect x="194" y="162" width="8" height="8" transform="rotate(0,198,166)"/><rect x="194" y="178" width="8" height="8" transform="rotate(0,198,182)"/><rect x="194" y="194" width="8" height="8" transform="rotate(0,198,198)"/><rect x="194" y="202" width="8" height="8" transform="rotate(0,198,206)"/><rect x="194" y="218" width="8" height="8" transform="rotate(0,198,222)"/><rect x="194" y="266" width="8" height="8" transform="rotate(0,198,270)"/><rect x="194" y="274" width="8" height="8" transform="rotate(0,198,278)"/><rect x="202" y="18" width="8" height="8" transform="rotate(0,206,22)"/><rect x="202" y="34" width="8" height="8" transform="rotate(0,206,38)"/><rect x="202" y="42" width="8" height="8" transform="rotate(0,206,46)"/><rect x="202" y="50" width="8" height="8" transform="rotate(0,206,54)"/><rect x="202" y="58" width="8" height="8" transform="rotate(0,206,62)"/><rect x="202" y="74" width="8" height="8" transform="rotate(0,206,78)"/><rect x="202" y="82" width="8" height="8" transform="rotate(0,206,86)"/><rect x="202" y="90" width="8" height="8" transform="rotate(0,206,94)"/><rect x="202" y="138" width="8" height="8" transform="rotate(0,206,142)"/><rect x="202" y="146" width="8" height="8" transform="rotate(0,206,150)"/><rect x="202" y="162" width="8" height="8" transform="rotate(0,206,166)"/><rect x="202" y="170" width="8" height="8" transform="rotate(0,206,174)"/><rect x="202" y="178" width="8" height="8" transform="rotate(0,206,182)"/><rect x="202" y="194" width="8" height="8" transform="rotate(0,206,198)"/><rect x="202" y="218" width="8" height="8" transform="rotate(0,206,222)"/><rect x="202" y="234" width="8" height="8" transform="rotate(0,206,238)"/><rect x="202" y="242" width="8" height="8" transform="rotate(0,206,246)"/><rect x="202" y="258" width="8" height="8" transform="rotate(0,206,262)"/><rect x="202" y="274" width="8" height="8" transform="rotate(0,206,278)"/><rect x="210" y="18" width="8" height="8" transform="rotate(0,214,22)"/><rect x="210" y="26" width="8" height="8" transform="rotate(0,214,30)"/><rect x="210" y="42" width="8" height="8" transform="rotate(0,214,46)"/><rect x="210" y="50" width="8" height="8" transform="rotate(0,214,54)"/><rect x="210" y="58" width="8" height="8" transform="rotate(0,214,62)"/><rect x="210" y="66" width="8" height="8" transform="rotate(0,214,70)"/><rect x="210" y="74" width="8" height="8" transform="rotate(0,214,78)"/><rect x="210" y="82" width="8" height="8" transform="rotate(0,214,86)"/><rect x="210" y="122" width="8" height="8" transform="rotate(0,214,126)"/><rect x="210" y="130" width="8" height="8" transform="rotate(0,214,134)"/><rect x="210" y="162" width="8" height="8" transform="rotate(0,214,166)"/><rect x="210" y="178" width="8" height="8" transform="rotate(0,214,182)"/><rect x="210" y="210" width="8" height="8" transform="rotate(0,214,214)"/><rect x="210" y="218" width="8" height="8" transform="rotate(0,214,222)"/><rect x="210" y="226" width="8" height="8" transform="rotate(0,214,230)"/><rect x="210" y="234" width="8" height="8" transform="rotate(0,214,238)"/><rect x="210" y="242" width="8" height="8" transform="rotate(0,214,246)"/><rect x="210" y="250" width="8" height="8" transform="rotate(0,214,254)"/><rect x="218" y="82" width="8" height="8" transform="rotate(0,222,86)"/><rect x="218" y="122" width="8" height="8" transform="rotate(0,222,126)"/><rect x="218" y="202" width="8" height="8" transform="rotate(0,222,206)"/><rect x="218" y="210" width="8" height="8" transform="rotate(0,222,214)"/><rect x="218" y="242" width="8" height="8" transform="rotate(0,222,246)"/><rect x="218" y="258" width="8" height="8" transform="rotate(0,222,262)"/><rect x="218" y="266" width="8" height="8" transform="rotate(0,222,270)"/><rect x="226" y="90" width="8" height="8" transform="rotate(0,230,94)"/><rect x="226" y="98" width="8" height="8" transform="rotate(0,230,102)"/><rect x="226" y="114" width="8" height="8" transform="rotate(0,230,118)"/><rect x="226" y="138" width="8" height="8" transform="rotate(0,230,142)"/><rect x="226" y="146" width="8" height="8" transform="rotate(0,230,150)"/><rect x="226" y="162" width="8" height="8" transform="rotate(0,230,166)"/><rect x="226" y="170" width="8" height="8" transform="rotate(0,230,174)"/><rect x="226" y="178" width="8" height="8" transform="rotate(0,230,182)"/><rect x="226" y="186" width="8" height="8" transform="rotate(0,230,190)"/><rect x="226" y="194" width="8" height="8" transform="rotate(0,230,198)"/><rect x="226" y="202" width="8" height="8" transform="rotate(0,230,206)"/><rect x="226" y="210" width="8" height="8" transform="rotate(0,230,214)"/><rect x="226" y="226" width="8" height="8" transform="rotate(0,230,230)"/><rect x="226" y="242" width="8" height="8" transform="rotate(0,230,246)"/><rect x="226" y="258" width="8" height="8" transform="rotate(0,230,262)"/><rect x="234" y="82" width="8" height="8" transform="rotate(0,238,86)"/><rect x="234" y="90" width="8" height="8" transform="rotate(0,238,94)"/><rect x="234" y="106" width="8" height="8" transform="rotate(0,238,110)"/><rect x="234" y="122" width="8" height="8" transform="rotate(0,238,126)"/><rect x="234" y="130" width="8" height="8" transform="rotate(0,238,134)"/><rect x="234" y="138" width="8" height="8" transform="rotate(0,238,142)"/><rect x="234" y="146" width="8" height="8" transform="rotate(0,238,150)"/><rect x="234" y="154" width="8" height="8" transform="rotate(0,238,158)"/><rect x="234" y="170" width="8" height="8" transform="rotate(0,238,174)"/><rect x="234" y="202" width="8" height="8" transform="rotate(0,238,206)"/><rect x="234" y="210" width="8" height="8" transform="rotate(0,238,214)"/><rect x="234" y="242" width="8" height="8" transform="rotate(0,238,246)"/><rect x="234" y="250" width="8" height="8" transform="rotate(0,238,254)"/><rect x="234" y="258" width="8" height="8" transform="rotate(0,238,262)"/><rect x="234" y="266" width="8" height="8" transform="rotate(0,238,270)"/><rect x="234" y="274" width="8" height="8" transform="rotate(0,238,278)"/><rect x="242" y="82" width="8" height="8" transform="rotate(0,246,86)"/><rect x="242" y="106" width="8" height="8" transform="rotate(0,246,110)"/><rect x="242" y="122" width="8" height="8" transform="rotate(0,246,126)"/><rect x="242" y="138" width="8" height="8" transform="rotate(0,246,142)"/><rect x="242" y="162" width="8" height="8" transform="rotate(0,246,166)"/><rect x="242" y="170" width="8" height="8" transform="rotate(0,246,174)"/><rect x="242" y="178" width="8" height="8" transform="rotate(0,246,182)"/><rect x="242" y="194" width="8" height="8" transform="rotate(0,246,198)"/><rect x="242" y="202" width="8" height="8" transform="rotate(0,246,206)"/><rect x="242" y="210" width="8" height="8" transform="rotate(0,246,214)"/><rect x="242" y="218" width="8" height="8" transform="rotate(0,246,222)"/><rect x="242" y="226" width="8" height="8" transform="rotate(0,246,230)"/><rect x="242" y="234" width="8" height="8" transform="rotate(0,246,238)"/><rect x="242" y="242" width="8" height="8" transform="rotate(0,246,246)"/><rect x="242" y="266" width="8" height="8" transform="rotate(0,246,270)"/><rect x="250" y="82" width="8" height="8" transform="rotate(0,254,86)"/><rect x="250" y="90" width="8" height="8" transform="rotate(0,254,94)"/><rect x="250" y="106" width="8" height="8" transform="rotate(0,254,110)"/><rect x="250" y="146" width="8" height="8" transform="rotate(0,254,150)"/><rect x="250" y="154" width="8" height="8" transform="rotate(0,254,158)"/><rect x="250" y="162" width="8" height="8" transform="rotate(0,254,166)"/><rect x="250" y="170" width="8" height="8" transform="rotate(0,254,174)"/><rect x="250" y="178" width="8" height="8" transform="rotate(0,254,182)"/><rect x="250" y="210" width="8" height="8" transform="rotate(0,254,214)"/><rect x="250" y="218" width="8" height="8" transform="rotate(0,254,222)"/><rect x="250" y="234" width="8" height="8" transform="rotate(0,254,238)"/><rect x="250" y="274" width="8" height="8" transform="rotate(0,254,278)"/><rect x="258" y="114" width="8" height="8" transform="rotate(0,262,118)"/><rect x="258" y="122" width="8" height="8" transform="rotate(0,262,126)"/><rect x="258" y="130" width="8" height="8" transform="rotate(0,262,134)"/><rect x="258" y="146" width="8" height="8" transform="rotate(0,262,150)"/><rect x="258" y="162" width="8" height="8" transform="rotate(0,262,166)"/><rect x="258" y="170" width="8" height="8" transform="rotate(0,262,174)"/><rect x="258" y="178" width="8" height="8" transform="rotate(0,262,182)"/><rect x="258" y="194" width="8" height="8" transform="rotate(0,262,198)"/><rect x="258" y="202" width="8" height="8" transform="rotate(0,262,206)"/><rect x="258" y="234" width="8" height="8" transform="rotate(0,262,238)"/><rect x="258" y="242" width="8" height="8" transform="rotate(0,262,246)"/><rect x="258" y="250" width="8" height="8" transform="rotate(0,262,254)"/><rect x="258" y="258" width="8" height="8" transform="rotate(0,262,262)"/><rect x="258" y="266" width="8" height="8" transform="rotate(0,262,270)"/><rect x="258" y="274" width="8" height="8" transform="rotate(0,262,278)"/><rect x="266" y="82" width="8" height="8" transform="rotate(0,270,86)"/><rect x="266" y="90" width="8" height="8" transform="rotate(0,270,94)"/><rect x="266" y="98" width="8" height="8" transform="rotate(0,270,102)"/><rect x="266" y="106" width="8" height="8" transform="rotate(0,270,110)"/><rect x="266" y="114" width="8" height="8" transform="rotate(0,270,118)"/><rect x="266" y="122" width="8" height="8" transform="rotate(0,270,126)"/><rect x="266" y="130" width="8" height="8" transform="rotate(0,270,134)"/><rect x="266" y="154" width="8" height="8" transform="rotate(0,270,158)"/><rect x="266" y="162" width="8" height="8" transform="rotate(0,270,166)"/><rect x="266" y="178" width="8" height="8" transform="rotate(0,270,182)"/><rect x="266" y="194" width="8" height="8" transform="rotate(0,270,198)"/><rect x="266" y="202" width="8" height="8" transform="rotate(0,270,206)"/><rect x="266" y="210" width="8" height="8" transform="rotate(0,270,214)"/><rect x="266" y="226" width="8" height="8" transform="rotate(0,270,230)"/><rect x="266" y="234" width="8" height="8" transform="rotate(0,270,238)"/><rect x="266" y="242" width="8" height="8" transform="rotate(0,270,246)"/><rect x="266" y="250" width="8" height="8" transform="rotate(0,270,254)"/><rect x="266" y="258" width="8" height="8" transform="rotate(0,270,262)"/><rect x="266" y="266" width="8" height="8" transform="rotate(0,270,270)"/><rect x="266" y="274" width="8" height="8" transform="rotate(0,270,278)"/><rect x="274" y="90" width="8" height="8" transform="rotate(0,278,94)"/><rect x="274" y="98" width="8" height="8" transform="rotate(0,278,102)"/><rect x="274" y="106" width="8" height="8" transform="rotate(0,278,110)"/><rect x="274" y="114" width="8" height="8" transform="rotate(0,278,118)"/><rect x="274" y="122" width="8" height="8" transform="rotate(0,278,126)"/><rect x="274" y="146" width="8" height="8" transform="rotate(0,278,150)"/><rect x="274" y="170" width="8" height="8" transform="rotate(0,278,174)"/><rect x="274" y="202" width="8" height="8" transform="rotate(0,278,206)"/><rect x="274" y="210" width="8" height="8" transform="rotate(0,278,214)"/><rect x="274" y="234" width="8" height="8" transform="rotate(0,278,238)"/><rect x="274" y="242" width="8" height="8" transform="rotate(0,278,246)"/><path clip-rule="evenodd" d="M 18 18v 56h 56v -56zM 26 26h 40v 40h -40z" transform="rotate(0,46,46)"/><rect x="34" y="34" width="24" height="24" transform="rotate(0,46,46)"/><path clip-rule="evenodd" d="M 226 18v 56h 56v -56zM 234 26h 40v 40h -40z" transform="rotate(90,254,46)"/><rect x="242" y="34" width="24" height="24" transform="rotate(90,254,46)"/><path clip-rule="evenodd" d="M 18 226v 56h 56v -56zM 26 234h 40v 40h -40z" transform="rotate(-90,46,254)"/><rect x="34" y="242" width="24" height="24" transform="rotate(-90,46,254)"/></clipPath></defs><rect x="0" y="0" height="300" width="300" clip-path="url('#clip-path-background-color')" fill="#FFFFFF"/><rect x="0" y="0" height="300" width="300" clip-path="url('#clip-path-dot-color')" fill="#76b5c5"/></svg>